ffmpeg started on 2025-05-12 at 20:35:27
Report written to "D:\Convert\FFMetrics\reports\ssim_report-6.txt"
Log level: 32
Command line:
ffmpeg -hide_banner -nostdin -i "G:\\\xc0\xed\xe8\xec\xe5\\\xce\xed\xe3\xee\xe8\xed\xe3\xe8\\!_35_\xcb\xe5\xf2\xee_2024\\DreamCast-1\\\xcf\xf0\xe8\xea\xeb\xfe\xf7\xe5\xed\xe8\xff \xe2 \xe4\xf0\xf3\xe3\xee\xec \xec\xe8\xf0\xe5 - \xc2\xee\xf1\xef\xe8\xf2\xfb\xe2\xe0\xf2\xfc \xe4\xe5\xf2\xe5\xe9 \xe1\xf3\xe4\xf3\xf7\xe8 \xe0\xe2\xe0\xed\xf2\xfe\xf0\xe8\xf1\xf2\xee\xec\\[DC] Iseyuru - 01_Telegram_HEVC.mkv" -i "G:\\\xc0\xed\xe8\xec\xe5\\\xce\xed\xe3\xee\xe8\xed\xe3\xe8\\!_35_\xcb\xe5\xf2\xee_2024\\DreamCast-1\\\xcf\xf0\xe8\xea\xeb\xfe\xf7\xe5\xed\xe8\xff \xe2 \xe4\xf0\xf3\xe3\xee\xec \xec\xe8\xf0\xe5 - \xc2\xee\xf1\xef\xe8\xf2\xfb\xe2\xe0\xf2\xfc \xe4\xe5\xf2\xe5\xe9 \xe1\xf3\xe4\xf3\xf7\xe8 \xe0\xe2\xe0\xed\xf2\xfe\xf0\xe8\xf1\xf2\xee\xec\\[DC] Iseyuru - 01_Telegram.mp4" -lavfi "[0:v]settb=AVTB,setpts=PTS-STARTPTS,format=pix_fmts=yuv420p10,fps=24000/1001,scale=1920:1080:flags=bicubic[main];[1:v]settb=AVTB,setpts=PTS-STARTPTS,format=pix_fmts=yuv420p,fps=24000/1001,scale=1920:1080:flags=bicubic[ref];[main][ref]ssim=eof_action=endall:stats_file='D\\:/Convert/FFMetrics/logs/ssim_logfile-6.txt'" -f null -
Input #0, matroska,webm, from 'G:\Аниме\Онгоинги\!_35_Лето_2024\DreamCast-1\Приключения в другом мире - Воспитывать детей будучи авантюристом\[DC] Iseyuru - 01_Telegram_HEVC.mkv':
  Metadata:
    COMPATIBLE_BRANDS: isomiso2avc1mp41
    MAJOR_BRAND     : isom
    MINOR_VERSION   : 512
    ENCODER         : Lavf61.7.100
  Duration: 00:23:56.67, start: -0.021000, bitrate: 1048 kb/s
  Stream #0:0: Video: hevc (Main 10), yuv420p10le(tv, bt709, progressive), 1920x1080 [SAR 1:1 DAR 16:9], 23.98 fps, 23.98 tbr, 1k tbn (default)
      Metadata:
        HANDLER_NAME    : VideoHandler
        VENDOR_ID       : [0][0][0][0]
        ENCODER         : Lavc61.19.100 libx265
        BPS             : 850828
        DURATION        : 00:23:56.559708333
        NUMBER_OF_FRAMES: 34443
        NUMBER_OF_BYTES : 152783089
        _STATISTICS_WRITING_APP: mkvpropedit v66.0.0 ('Josie') 64-bit
        _STATISTICS_WRITING_DATE_UTC: 2025-05-10 12:27:29
        _STATISTICS_TAGS: BPS DURATION NUMBER_OF_FRAMES NUMBER_OF_BYTES
  Stream #0:1: Audio: aac (LC), 48000 Hz, stereo, fltp (default)
      Metadata:
        HANDLER_NAME    : SoundHandler
        VENDOR_ID       : [0][0][0][0]
        ENCODER         : Lavc61.19.100 aac
        BPS             : 193833
        DURATION        : 00:23:56.672000000
        NUMBER_OF_FRAMES: 67345
        NUMBER_OF_BYTES : 34809311
        _STATISTICS_WRITING_APP: mkvpropedit v66.0.0 ('Josie') 64-bit
        _STATISTICS_WRITING_DATE_UTC: 2025-05-10 12:27:29
        _STATISTICS_TAGS: BPS DURATION NUMBER_OF_FRAMES NUMBER_OF_BYTES
Input #1, mov,mp4,m4a,3gp,3g2,mj2, from 'G:\Аниме\Онгоинги\!_35_Лето_2024\DreamCast-1\Приключения в другом мире - Воспитывать детей будучи авантюристом\[DC] Iseyuru - 01_Telegram.mp4':
  Metadata:
    major_brand     : isom
    minor_version   : 512
    compatible_brands: isomiso2avc1mp41
    encoder         : Lavf61.1.100
  Duration: 00:23:56.63, start: 0.000000, bitrate: 3598 kb/s
  Stream #1:0[0x1](und): Video: h264 (High) (avc1 / 0x31637661), yuv420p(tv, bt709, progressive), 1920x1080 [SAR 1:1 DAR 16:9], 3450 kb/s, 23.98 fps, 23.98 tbr, 24k tbn (default)
      Metadata:
        handler_name    : VideoHandler
        vendor_id       : [0][0][0][0]
        encoder         : Lavc61.3.100 h264_qsv
  Stream #1:1[0x2](und): Audio: aac (HE-AACv2) (mp4a / 0x6134706D), 48000 Hz, stereo, fltp, 144 kb/s (default)
      Metadata:
        handler_name    : SoundHandler
        vendor_id       : [0][0][0][0]
Stream mapping:
  Stream #0:0 (hevc) -> settb:default
  Stream #1:0 (h264) -> settb:default
  ssim:default -> Stream #0:0 (wrapped_avframe)
  Stream #0:1 -> #0:1 (aac (native) -> pcm_s16le (native))
Output #0, null, to 'pipe:':
  Metadata:
    COMPATIBLE_BRANDS: isomiso2avc1mp41
    MAJOR_BRAND     : isom
    MINOR_VERSION   : 512
    encoder         : Lavf61.7.100
  Stream #0:0: Video: wrapped_avframe, yuv420p10le(tv, bt709, progressive), 1920x1080 [SAR 1:1 DAR 16:9], q=2-31, 200 kb/s, 23.98 fps, 23.98 tbn
      Metadata:
        encoder         : Lavc61.19.100 wrapped_avframe
  Stream #0:1: Audio: pcm_s16le, 48000 Hz, stereo, s16, 1536 kb/s (default)
      Metadata:
        HANDLER_NAME    : SoundHandler
        VENDOR_ID       : [0][0][0][0]
        _STATISTICS_TAGS: BPS DURATION NUMBER_OF_FRAMES NUMBER_OF_BYTES
        BPS             : 193833
        DURATION        : 00:23:56.672000000
        NUMBER_OF_FRAMES: 67345
        NUMBER_OF_BYTES : 34809311
        _STATISTICS_WRITING_APP: mkvpropedit v66.0.0 ('Josie') 64-bit
        _STATISTICS_WRITING_DATE_UTC: 2025-05-10 12:27:29
        encoder         : Lavc61.19.100 pcm_s16le
frame=  173 fps=0.0 q=-0.0 size=N/A time=00:00:07.21 bitrate=N/A speed=13.7x    frame=  363 fps=351 q=-0.0 size=N/A time=00:00:15.14 bitrate=N/A speed=14.6x    frame=  591 fps=379 q=-0.0 size=N/A time=00:00:24.64 bitrate=N/A speed=15.8x    frame=  827 fps=401 q=-0.0 size=N/A time=00:00:34.49 bitrate=N/A speed=16.7x    frame= 1038 fps=402 q=-0.0 size=N/A time=00:00:43.29 bitrate=N/A speed=16.8x    frame= 1243 fps=402 q=-0.0 size=N/A time=00:00:51.84 bitrate=N/A speed=16.8x    frame= 1465 fps=405 q=-0.0 size=N/A time=00:01:01.10 bitrate=N/A speed=16.9x    frame= 1686 fps=407 q=-0.0 size=N/A time=00:01:10.32 bitrate=N/A speed=  17x    frame= 1926 fps=415 q=-0.0 size=N/A time=00:01:20.33 bitrate=N/A speed=17.3x    frame= 2162 fps=418 q=-0.0 size=N/A time=00:01:30.17 bitrate=N/A speed=17.5x    frame= 2384 fps=420 q=-0.0 size=N/A time=00:01:39.43 bitrate=N/A speed=17.5x    frame= 2616 fps=422 q=-0.0 size=N/A time=00:01:49.10 bitrate=N/A speed=17.6x    frame= 2867 fps=427 q=-0.0 size=N/A time=00:01:59.57 bitrate=N/A speed=17.8x    frame= 3049 fps=422 q=-0.0 size=N/A time=00:02:07.16 bitrate=N/A speed=17.6x    frame= 3218 fps=415 q=-0.0 size=N/A time=00:02:14.21 bitrate=N/A speed=17.3x    frame= 3432 fps=416 q=-0.0 size=N/A time=00:02:23.14 bitrate=N/A speed=17.3x    frame= 3637 fps=414 q=-0.0 size=N/A time=00:02:31.69 bitrate=N/A speed=17.3x    frame= 3833 fps=413 q=-0.0 size=N/A time=00:02:39.86 bitrate=N/A speed=17.2x    frame= 4003 fps=408 q=-0.0 size=N/A time=00:02:46.95 bitrate=N/A speed=  17x    frame= 4205 fps=407 q=-0.0 size=N/A time=00:02:55.38 bitrate=N/A speed=  17x    frame= 4431 fps=409 q=-0.0 size=N/A time=00:03:04.80 bitrate=N/A speed=17.1x    frame= 4636 fps=409 q=-0.0 size=N/A time=00:03:13.35 bitrate=N/A speed=  17x    frame= 4784 fps=403 q=-0.0 size=N/A time=00:03:19.53 bitrate=N/A speed=16.8x    frame= 4938 fps=399 q=-0.0 size=N/A time=00:03:25.95 bitrate=N/A speed=16.6x    frame= 5167 fps=400 q=-0.0 size=N/A time=00:03:35.50 bitrate=N/A speed=16.7x    frame= 5387 fps=402 q=-0.0 size=N/A time=00:03:44.68 bitrate=N/A speed=16.8x    frame= 5567 fps=400 q=-0.0 size=N/A time=00:03:52.19 bitrate=N/A speed=16.7x    frame= 5779 fps=400 q=-0.0 size=N/A time=00:04:01.03 bitrate=N/A speed=16.7x    frame= 5969 fps=399 q=-0.0 size=N/A time=00:04:08.95 bitrate=N/A speed=16.6x    frame= 6169 fps=398 q=-0.0 size=N/A time=00:04:17.29 bitrate=N/A speed=16.6x    frame= 6365 fps=398 q=-0.0 size=N/A time=00:04:25.47 bitrate=N/A speed=16.6x    frame= 6597 fps=400 q=-0.0 size=N/A time=00:04:35.14 bitrate=N/A speed=16.7x    frame= 6842 fps=402 q=-0.0 size=N/A time=00:04:45.36 bitrate=N/A speed=16.8x    frame= 7059 fps=403 q=-0.0 size=N/A time=00:04:54.41 bitrate=N/A speed=16.8x    frame= 7282 fps=404 q=-0.0 size=N/A time=00:05:03.72 bitrate=N/A speed=16.8x    frame= 7519 fps=405 q=-0.0 size=N/A time=00:05:13.60 bitrate=N/A speed=16.9x    frame= 7757 fps=406 q=-0.0 size=N/A time=00:05:23.53 bitrate=N/A speed=  17x    frame= 8011 fps=409 q=-0.0 size=N/A time=00:05:34.12 bitrate=N/A speed=17.1x    frame= 8254 fps=410 q=-0.0 size=N/A time=00:05:44.26 bitrate=N/A speed=17.1x    frame= 8523 fps=413 q=-0.0 size=N/A time=00:05:55.48 bitrate=N/A speed=17.2x    frame= 8766 fps=415 q=-0.0 size=N/A time=00:06:05.61 bitrate=N/A speed=17.3x    frame= 8978 fps=414 q=-0.0 size=N/A time=00:06:14.45 bitrate=N/A speed=17.3x    frame= 9155 fps=413 q=-0.0 size=N/A time=00:06:21.83 bitrate=N/A speed=17.2x    frame= 9343 fps=412 q=-0.0 size=N/A time=00:06:29.68 bitrate=N/A speed=17.2x    frame= 9526 fps=410 q=-0.0 size=N/A time=00:06:37.31 bitrate=N/A speed=17.1x    frame= 9782 fps=412 q=-0.0 size=N/A time=00:06:47.99 bitrate=N/A speed=17.2x    frame=10029 fps=414 q=-0.0 size=N/A time=00:06:58.29 bitrate=N/A speed=17.3x    frame=10226 fps=413 q=-0.0 size=N/A time=00:07:06.50 bitrate=N/A speed=17.2x    frame=10453 fps=414 q=-0.0 size=N/A time=00:07:15.97 bitrate=N/A speed=17.3x    frame=10670 fps=414 q=-0.0 size=N/A time=00:07:25.02 bitrate=N/A speed=17.3x    frame=10917 fps=415 q=-0.0 size=N/A time=00:07:35.32 bitrate=N/A speed=17.3x    frame=11139 fps=415 q=-0.0 size=N/A time=00:07:44.58 bitrate=N/A speed=17.3x    frame=11379 fps=416 q=-0.0 size=N/A time=00:07:54.59 bitrate=N/A speed=17.4x    frame=11591 fps=416 q=-0.0 size=N/A time=00:08:03.44 bitrate=N/A speed=17.4x    frame=11826 fps=417 q=-0.0 size=N/A time=00:08:13.24 bitrate=N/A speed=17.4x    frame=12074 fps=418 q=-0.0 size=N/A time=00:08:23.58 bitrate=N/A speed=17.4x    frame=12294 fps=418 q=-0.0 size=N/A time=00:08:32.76 bitrate=N/A speed=17.4x    frame=12549 fps=419 q=-0.0 size=N/A time=00:08:43.39 bitrate=N/A speed=17.5x    frame=12815 fps=421 q=-0.0 size=N/A time=00:08:54.49 bitrate=N/A speed=17.6x    frame=13057 fps=422 q=-0.0 size=N/A time=00:09:04.58 bitrate=N/A speed=17.6x    frame=13285 fps=422 q=-0.0 size=N/A time=00:09:14.09 bitrate=N/A speed=17.6x    frame=13527 fps=423 q=-0.0 size=N/A time=00:09:24.18 bitrate=N/A speed=17.6x    frame=13779 fps=424 q=-0.0 size=N/A time=00:09:34.69 bitrate=N/A speed=17.7x    frame=13986 fps=424 q=-0.0 size=N/A time=00:09:43.33 bitrate=N/A speed=17.7x    frame=14240 fps=425 q=-0.0 size=N/A time=00:09:53.92 bitrate=N/A speed=17.7x    frame=14486 fps=425 q=-0.0 size=N/A time=00:10:04.18 bitrate=N/A speed=17.7x    frame=14705 fps=425 q=-0.0 size=N/A time=00:10:13.32 bitrate=N/A speed=17.7x    frame=14946 fps=426 q=-0.0 size=N/A time=00:10:23.37 bitrate=N/A speed=17.8x    frame=15181 fps=426 q=-0.0 size=N/A time=00:10:33.17 bitrate=N/A speed=17.8x    frame=15384 fps=426 q=-0.0 size=N/A time=00:10:41.64 bitrate=N/A speed=17.8x    frame=15608 fps=426 q=-0.0 size=N/A time=00:10:50.98 bitrate=N/A speed=17.8x    frame=15840 fps=426 q=-0.0 size=N/A time=00:11:00.66 bitrate=N/A speed=17.8x    frame=16080 fps=427 q=-0.0 size=N/A time=00:11:10.67 bitrate=N/A speed=17.8x    frame=16328 fps=428 q=-0.0 size=N/A time=00:11:21.01 bitrate=N/A speed=17.8x    frame=16574 fps=428 q=-0.0 size=N/A time=00:11:31.27 bitrate=N/A speed=17.9x    frame=16827 fps=429 q=-0.0 size=N/A time=00:11:41.82 bitrate=N/A speed=17.9x    frame=17048 fps=429 q=-0.0 size=N/A time=00:11:51.04 bitrate=N/A speed=17.9x    frame=17286 fps=430 q=-0.0 size=N/A time=00:12:00.97 bitrate=N/A speed=17.9x    frame=17498 fps=429 q=-0.0 size=N/A time=00:12:09.81 bitrate=N/A speed=17.9x    frame=17722 fps=429 q=-0.0 size=N/A time=00:12:19.15 bitrate=N/A speed=17.9x    frame=17937 fps=429 q=-0.0 size=N/A time=00:12:28.12 bitrate=N/A speed=17.9x    frame=18185 fps=430 q=-0.0 size=N/A time=00:12:38.46 bitrate=N/A speed=17.9x    frame=18422 fps=430 q=-0.0 size=N/A time=00:12:48.35 bitrate=N/A speed=17.9x    frame=18652 fps=430 q=-0.0 size=N/A time=00:12:57.94 bitrate=N/A speed=17.9x    frame=18898 fps=431 q=-0.0 size=N/A time=00:13:08.20 bitrate=N/A speed=  18x    frame=19147 fps=431 q=-0.0 size=N/A time=00:13:18.58 bitrate=N/A speed=  18x    frame=19401 fps=432 q=-0.0 size=N/A time=00:13:29.18 bitrate=N/A speed=  18x    frame=19638 fps=432 q=-0.0 size=N/A time=00:13:39.06 bitrate=N/A speed=  18x    frame=19875 fps=433 q=-0.0 size=N/A time=00:13:48.95 bitrate=N/A speed=  18x    frame=20112 fps=433 q=-0.0 size=N/A time=00:13:58.83 bitrate=N/A speed=18.1x    frame=20373 fps=434 q=-0.0 size=N/A time=00:14:09.72 bitrate=N/A speed=18.1x    frame=20603 fps=434 q=-0.0 size=N/A time=00:14:19.31 bitrate=N/A speed=18.1x    frame=20854 fps=434 q=-0.0 size=N/A time=00:14:29.78 bitrate=N/A speed=18.1x    frame=21089 fps=435 q=-0.0 size=N/A time=00:14:39.58 bitrate=N/A speed=18.1x    frame=21348 fps=435 q=-0.0 size=N/A time=00:14:50.38 bitrate=N/A speed=18.2x    frame=21615 fps=436 q=-0.0 size=N/A time=00:15:01.52 bitrate=N/A speed=18.2x    frame=21831 fps=436 q=-0.0 size=N/A time=00:15:10.53 bitrate=N/A speed=18.2x    frame=22086 fps=437 q=-0.0 size=N/A time=00:15:21.17 bitrate=N/A speed=18.2x    frame=22315 fps=437 q=-0.0 size=N/A time=00:15:30.72 bitrate=N/A speed=18.2x    frame=22562 fps=437 q=-0.0 size=N/A time=00:15:41.02 bitrate=N/A speed=18.2x    frame=22798 fps=437 q=-0.0 size=N/A time=00:15:50.86 bitrate=N/A speed=18.2x    frame=23022 fps=437 q=-0.0 size=N/A time=00:16:00.20 bitrate=N/A speed=18.2x    frame=23230 fps=437 q=-0.0 size=N/A time=00:16:08.88 bitrate=N/A speed=18.2x    frame=23464 fps=437 q=-0.0 size=N/A time=00:16:18.64 bitrate=N/A speed=18.2x    frame=23665 fps=437 q=-0.0 size=N/A time=00:16:27.02 bitrate=N/A speed=18.2x    frame=23894 fps=437 q=-0.0 size=N/A time=00:16:36.57 bitrate=N/A speed=18.2x    frame=24130 fps=437 q=-0.0 size=N/A time=00:16:46.42 bitrate=N/A speed=18.2x    frame=24326 fps=436 q=-0.0 size=N/A time=00:16:54.59 bitrate=N/A speed=18.2x    frame=24522 fps=436 q=-0.0 size=N/A time=00:17:02.77 bitrate=N/A speed=18.2x    frame=24775 fps=436 q=-0.0 size=N/A time=00:17:13.32 bitrate=N/A speed=18.2x    frame=25033 fps=437 q=-0.0 size=N/A time=00:17:24.08 bitrate=N/A speed=18.2x    frame=25287 fps=438 q=-0.0 size=N/A time=00:17:34.67 bitrate=N/A speed=18.2x    frame=25557 fps=438 q=-0.0 size=N/A time=00:17:45.93 bitrate=N/A speed=18.3x    frame=25763 fps=438 q=-0.0 size=N/A time=00:17:54.53 bitrate=N/A speed=18.3x    frame=25956 fps=437 q=-0.0 size=N/A time=00:18:02.58 bitrate=N/A speed=18.2x    frame=26200 fps=437 q=-0.0 size=N/A time=00:18:12.75 bitrate=N/A speed=18.2x    frame=26445 fps=438 q=-0.0 size=N/A time=00:18:22.97 bitrate=N/A speed=18.3x    frame=26705 fps=438 q=-0.0 size=N/A time=00:18:33.82 bitrate=N/A speed=18.3x    frame=26934 fps=439 q=-0.0 size=N/A time=00:18:43.37 bitrate=N/A speed=18.3x    frame=27159 fps=438 q=-0.0 size=N/A time=00:18:52.75 bitrate=N/A speed=18.3x    frame=27429 fps=439 q=-0.0 size=N/A time=00:19:04.01 bitrate=N/A speed=18.3x    frame=27690 fps=440 q=-0.0 size=N/A time=00:19:14.90 bitrate=N/A speed=18.3x    frame=27964 fps=440 q=-0.0 size=N/A time=00:19:26.33 bitrate=N/A speed=18.4x    frame=28212 fps=441 q=-0.0 size=N/A time=00:19:36.67 bitrate=N/A speed=18.4x    frame=28452 fps=441 q=-0.0 size=N/A time=00:19:46.68 bitrate=N/A speed=18.4x    frame=28664 fps=441 q=-0.0 size=N/A time=00:19:55.52 bitrate=N/A speed=18.4x    frame=28895 fps=441 q=-0.0 size=N/A time=00:20:05.16 bitrate=N/A speed=18.4x    frame=29149 fps=441 q=-0.0 size=N/A time=00:20:15.75 bitrate=N/A speed=18.4x    frame=29374 fps=441 q=-0.0 size=N/A time=00:20:25.14 bitrate=N/A speed=18.4x    frame=29628 fps=442 q=-0.0 size=N/A time=00:20:35.73 bitrate=N/A speed=18.4x    frame=29883 fps=442 q=-0.0 size=N/A time=00:20:46.37 bitrate=N/A speed=18.4x    frame=30126 fps=442 q=-0.0 size=N/A time=00:20:56.50 bitrate=N/A speed=18.4x    frame=30341 fps=442 q=-0.0 size=N/A time=00:21:05.47 bitrate=N/A speed=18.4x    frame=30586 fps=442 q=-0.0 size=N/A time=00:21:15.69 bitrate=N/A speed=18.4x    frame=30825 fps=442 q=-0.0 size=N/A time=00:21:25.65 bitrate=N/A speed=18.5x    frame=31062 fps=443 q=-0.0 size=N/A time=00:21:35.54 bitrate=N/A speed=18.5x    frame=31312 fps=443 q=-0.0 size=N/A time=00:21:45.97 bitrate=N/A speed=18.5x    frame=31552 fps=443 q=-0.0 size=N/A time=00:21:55.98 bitrate=N/A speed=18.5x    frame=31804 fps=443 q=-0.0 size=N/A time=00:22:06.49 bitrate=N/A speed=18.5x    frame=32034 fps=443 q=-0.0 size=N/A time=00:22:16.08 bitrate=N/A speed=18.5x    frame=32261 fps=443 q=-0.0 size=N/A time=00:22:25.55 bitrate=N/A speed=18.5x    frame=32510 fps=444 q=-0.0 size=N/A time=00:22:35.93 bitrate=N/A speed=18.5x    frame=32747 fps=444 q=-0.0 size=N/A time=00:22:45.82 bitrate=N/A speed=18.5x    frame=32960 fps=443 q=-0.0 size=N/A time=00:22:54.70 bitrate=N/A speed=18.5x    frame=33157 fps=443 q=-0.0 size=N/A time=00:23:02.92 bitrate=N/A speed=18.5x    frame=33367 fps=443 q=-0.0 size=N/A time=00:23:11.68 bitrate=N/A speed=18.5x    frame=33556 fps=442 q=-0.0 size=N/A time=00:23:19.56 bitrate=N/A speed=18.4x    frame=33767 fps=442 q=-0.0 size=N/A time=00:23:28.36 bitrate=N/A speed=18.4x    frame=33921 fps=441 q=-0.0 size=N/A time=00:23:34.78 bitrate=N/A speed=18.4x    frame=34139 fps=441 q=-0.0 size=N/A time=00:23:43.88 bitrate=N/A speed=18.4x    frame=34321 fps=440 q=-0.0 size=N/A time=00:23:51.47 bitrate=N/A speed=18.4x    [Parsed_ssim_10 @ 000001b96867f9c0] SSIM Y:0.994994 (23.004763) U:0.992630 (21.325137) V:0.993464 (21.847098) All:0.994345 (22.475481)
[out#0/null @ 000001b95b594e00] video:14800KiB audio:269380KiB subtitle:0KiB other streams:0KiB global headers:0KiB muxing overhead: unknown
frame=34443 fps=440 q=-0.0 Lsize=N/A time=00:23:56.56 bitrate=N/A speed=18.4x    
